HIERARCHY
ROOT Hips
{
	OFFSET -0.001795 -0.223333 0.028219
	CHANNELS 6 Xposition Yposition Zposition Zrotation Yrotation Xrotation 
	JOINT LeftUpLeg
	{
		OFFSET 0.069520 -0.091406 -0.006815
		CHANNELS 3 Zrotation Yrotation Xrotation
		JOINT LeftLeg
		{
			OFFSET 0.034277 -0.375199 -0.004496
			CHANNELS 3 Zrotation Yrotation Xrotation
			JOINT LeftFoot
			{
				OFFSET -0.013596 -0.397961 -0.043693
				CHANNELS 3 Zrotation Yrotation Xrotation
				JOINT LeftToe
				{
					OFFSET 0.026358 -0.055791 0.119288
					CHANNELS 3 Zrotation Yrotation Xrotation
					End Site
					{
						OFFSET 0.000000 0.000000 0.000000
					}
				}
			}
		}
	}
	JOINT RightUpLeg
	{
		OFFSET -0.067670 -0.090522 -0.004320
		CHANNELS 3 Zrotation Yrotation Xrotation
		JOINT RightLeg
		{
			OFFSET -0.038290 -0.382569 -0.008850
			CHANNELS 3 Zrotation Yrotation Xrotation
			JOINT RightFoot
			{
				OFFSET 0.015774 -0.398415 -0.042312
				CHANNELS 3 Zrotation Yrotation Xrotation
				JOINT RightToe
				{
					OFFSET -0.025372 -0.048144 0.123348
					CHANNELS 3 Zrotation Yrotation Xrotation
					End Site
					{
						OFFSET 0.000000 0.000000 0.000000
					}
				}
			}
		}
	}
	JOINT Spine
	{
		OFFSET -0.002533 0.108963 -0.026696
		CHANNELS 3 Zrotation Yrotation Xrotation
		JOINT Spine1
		{
			OFFSET 0.005487 0.135180 0.001092
			CHANNELS 3 Zrotation Yrotation Xrotation
			JOINT Spine2
			{
				OFFSET 0.001457 0.052922 0.025425
				CHANNELS 3 Zrotation Yrotation Xrotation
				JOINT Neck
				{
					OFFSET -0.002778 0.213870 -0.042857
					CHANNELS 3 Zrotation Yrotation Xrotation
					JOINT Head
					{
						OFFSET 0.005152 0.064970 0.051349
						CHANNELS 3 Zrotation Yrotation Xrotation
						End Site
						{
							OFFSET 0.000000 0.000000 0.000000
						}
					}
				}
				JOINT LeftShoulder
				{
					OFFSET 0.078845 0.121749 -0.034090
					CHANNELS 3 Zrotation Yrotation Xrotation
					JOINT LeftArm
					{
						OFFSET 0.090977 0.030469 -0.008868
						CHANNELS 3 Zrotation Yrotation Xrotation
						JOINT LeftForeArm
						{
							OFFSET 0.259612 -0.012772 -0.027456
							CHANNELS 3 Zrotation Yrotation Xrotation
							JOINT LeftHand
							{
								OFFSET 0.249234 0.008986 -0.001171
								CHANNELS 3 Zrotation Yrotation Xrotation
								End Site
								{
									OFFSET 0.000000 0.000000 0.000000
								}
							}
						}
					}
				}
				JOINT RightShoulder
				{
					OFFSET -0.081759 0.118833 -0.038615
					CHANNELS 3 Zrotation Yrotation Xrotation
					JOINT RightArm
					{
						OFFSET -0.096012 0.032551 -0.009143
						CHANNELS 3 Zrotation Yrotation Xrotation
						JOINT RightForeArm
						{
							OFFSET -0.253742 -0.013329 -0.021401
							CHANNELS 3 Zrotation Yrotation Xrotation
							JOINT RightHand
							{
								OFFSET -0.255298 0.007772 -0.005559
								CHANNELS 3 Zrotation Yrotation Xrotation
								End Site
								{
									OFFSET 0.000000 0.000000 0.000000
								}
							}
						}
					}
				}
			}
		}
	}
}
MOTION
Frames: 9
Frame Time: 0.050000
-0.014207 0.661283 -0.020677 -18.583236 -2.279329 -4.931055 5.212420 -3.115012 -62.677878 8.311079 -12.109024 78.024396 5.034185 0.815971 -23.633299 0.000000 0.000000 0.000000 -18.066114 -2.804948 -52.435601 12.741506 -8.231791 75.903387 1.725140 -1.140025 10.713411 0.000000 0.000000 0.000000 3.316570 -1.969858 27.089437 0.329214 -0.033923 -4.392068 9.210179 6.709531 0.868157 6.796518 -3.741345 -8.826381 0.000000 0.000000 0.000000 -8.610289 -8.476079 2.163808 -61.010425 -9.905460 -2.215455 -4.686499 -28.184268 1.935611 0.000000 0.000000 0.000000 12.419656 14.168929 6.206378 57.805129 11.159626 0.105634 1.255443 29.351574 1.437705 0.000000 0.000000 0.000000 
-0.014396 0.662347 -0.020330 -18.774081 -2.002870 -4.604913 5.357188 -3.106124 -62.566302 8.397080 -12.135906 77.363778 5.168186 0.678444 -24.506866 0.000000 0.000000 0.000000 -18.267347 -2.947918 -52.163879 12.634300 -8.190911 75.502520 1.779143 -1.233325 11.200239 0.000000 0.000000 0.000000 3.176381 -1.949616 26.940745 0.365585 -0.048714 -4.320473 9.437856 6.466268 0.758370 6.682042 -3.922558 -7.446019 0.000000 0.000000 0.000000 -8.869753 -8.226617 2.069952 -60.553658 -10.086306 -2.059298 -4.662053 -28.072652 1.933846 0.000000 0.000000 0.000000 12.345826 14.276893 6.218065 57.959069 11.141888 0.118252 1.457070 29.755685 1.500644 0.000000 0.000000 0.000000 
-0.014769 0.662892 -0.019874 -18.858882 -1.733247 -4.170878 5.470645 -3.115554 -62.707716 8.392816 -12.090130 76.887608 5.281735 0.590164 -25.200829 0.000000 0.000000 0.000000 -18.434060 -3.066516 -52.020939 12.520904 -8.152343 75.234388 1.568531 -1.312402 10.395041 0.000000 0.000000 0.000000 2.997637 -1.918308 26.791021 0.313939 -0.018135 -4.484580 9.489907 6.401903 1.017517 6.626583 -4.057506 -6.511550 0.000000 0.000000 0.000000 -8.329541 -8.079299 2.052018 -60.640650 -10.274737 -2.000432 -4.715466 -27.985491 1.945682 0.000000 0.000000 0.000000 12.154710 14.127874 6.146925 58.076755 11.174491 0.134020 1.929986 30.728085 1.689693 0.000000 0.000000 0.000000 
-0.015288 0.663305 -0.019460 -18.851191 -1.458016 -3.681965 5.527616 -3.166115 -62.990869 8.350188 -12.020992 76.502418 5.362394 0.525227 -25.683900 0.000000 0.000000 0.000000 -18.759428 -3.250672 -51.821235 12.218428 -7.946721 75.060113 1.736975 -0.754842 9.892756 0.000000 0.000000 0.000000 2.783451 -1.884613 26.722952 0.332653 -0.011008 -4.933613 9.588952 6.275619 1.462761 6.617160 -4.108729 -6.244008 0.000000 0.000000 0.000000 -8.025103 -7.646404 1.912306 -60.477021 -10.455852 -1.943208 -5.093564 -27.965191 2.045625 0.000000 0.000000 0.000000 11.916955 13.949391 6.052754 58.085758 11.061252 0.052958 2.781368 31.646034 1.986986 0.000000 0.000000 0.000000 
-0.015808 0.663050 -0.019105 -18.649101 -1.264694 -3.301129 5.726148 -3.104337 -63.340251 7.794188 -11.486196 76.442639 5.462580 0.650285 -26.054674 0.000000 0.000000 0.000000 -18.893161 -3.327505 -51.720273 11.613320 -7.424766 74.987357 1.884427 0.016803 8.843524 0.000000 0.000000 0.000000 2.686777 -1.856879 26.501281 0.259750 0.021585 -4.891508 9.521895 6.408268 1.519293 6.458766 -4.085576 -5.687823 0.000000 0.000000 0.000000 -7.821153 -7.467742 1.836319 -60.475952 -10.491910 -1.940796 -5.622248 -27.839518 2.154896 0.000000 0.000000 0.000000 11.765493 13.867326 6.043002 58.300285 10.843881 -0.032173 2.990466 32.771231 2.146162 0.000000 0.000000 0.000000 
-0.016208 0.662953 -0.018775 -18.215757 -1.046258 -2.875777 5.754018 -3.165288 -63.968158 7.098738 -10.858178 76.641828 5.441006 0.848051 -25.684048 0.000000 0.000000 0.000000 -19.181729 -3.489807 -51.785852 10.831726 -6.790996 75.409489 2.299590 1.211657 8.165042 0.000000 0.000000 0.000000 2.495645 -1.815103 26.398425 0.196530 0.064515 -5.378340 9.672562 6.490217 1.756501 6.390660 -4.047139 -5.606563 0.000000 0.000000 0.000000 -7.883868 -7.446807 1.816862 -60.573052 -9.846640 -2.303291 -6.044052 -27.815880 2.254488 0.000000 0.000000 0.000000 11.382029 13.790995 6.001198 58.396588 10.470428 -0.211799 3.190506 33.159968 2.246596 0.000000 0.000000 0.000000 
-0.016668 0.662607 -0.018432 -17.627385 -0.811293 -2.877847 5.542076 -3.391608 -64.329533 6.422461 -10.326590 77.114412 5.364953 1.117260 -24.914730 0.000000 0.000000 0.000000 -19.451446 -3.637809 -51.378401 9.760272 -5.872241 75.884156 2.835425 2.668741 7.553878 0.000000 0.000000 0.000000 2.328553 -1.771156 26.184532 0.208318 0.057733 -5.246311 9.576831 6.640308 1.787025 6.373147 -4.073806 -5.337578 0.000000 0.000000 0.000000 -7.923003 -7.406355 1.767814 -60.689030 -9.659776 -2.429282 -6.286729 -27.451524 2.268016 0.000000 0.000000 0.000000 11.300830 13.770604 6.033039 58.186717 10.267743 -0.313299 3.057842 33.041984 2.217211 0.000000 0.000000 0.000000 
-0.017125 0.662306 -0.018132 -17.028377 -0.634587 -2.742015 5.348478 -3.592266 -64.880451 5.771993 -9.782267 77.614778 5.251845 1.384256 -23.937881 0.000000 0.000000 0.000000 -19.541898 -3.684038 -51.095061 8.544846 -4.767959 76.277842 3.508512 4.790702 6.393523 0.000000 0.000000 0.000000 2.273030 -1.748318 25.986964 0.065464 0.121337 -5.265439 9.782802 6.639931 1.624017 6.291766 -4.076248 -4.985801 0.000000 0.000000 0.000000 -8.143917 -7.191211 1.662201 -60.767262 -9.018647 -2.743799 -6.657234 -27.058824 2.323026 0.000000 0.000000 0.000000 10.930501 13.763341 5.986439 57.974244 10.003781 -0.414409 3.170654 32.300375 2.178482 0.000000 0.000000 0.000000 
-0.017552 0.661767 -0.017971 -16.265603 -0.557341 -2.798912 5.201498 -3.746202 -65.583100 4.789181 -8.939811 78.562190 5.023092 1.759053 -22.147500 0.000000 0.000000 0.000000 -19.502253 -3.661216 -50.960950 7.410535 -3.716851 77.256449 3.606692 5.876196 4.966978 0.000000 0.000000 0.000000 2.236821 -1.726271 25.835127 0.134093 0.092130 -5.261388 9.637078 6.671287 1.670686 6.423302 -4.070160 -5.519190 0.000000 0.000000 0.000000 -8.221020 -7.014345 1.575198 -61.289329 -8.686627 -2.965706 -6.167842 -26.798023 2.182885 0.000000 0.000000 0.000000 10.842974 13.787465 6.003519 57.830599 10.127830 -0.359180 2.445210 31.654324 1.938032 0.000000 0.000000 0.000000 
